
<svg xmlns="http://www.w3.org/2000/svg" viewBox="0 0 821 823" fill-rule="evenodd" clip-rule="evenodd" stroke-linejoin="round" stroke-miterlimit="2"><path fill="none" d="M0 0h820.224v822.223H0z"/><g transform="matrix(.74414 0 0 .74414 -10551.698 1075.286)"><circle cx="14727" cy="-897.644" r="547.356" fill="#fff"/><clipPath id="a"><circle cx="14727" cy="-897.644" r="547.356"/></clipPath><g clip-path="url(#a)"><circle cx="596.193" cy="365.044" r="9.39" fill="#d7e2f3" transform="matrix(.66114 0 0 .72206 13831.02 -1704.34)"/><circle cx="596.193" cy="365.044" r="9.39" fill="#d7e2f3" transform="matrix(.66114 0 0 .72206 13831.02 -1633.227)"/><circle cx="596.193" cy="365.044" r="9.39" fill="#d7e2f3" transform="matrix(.66114 0 0 .72206 13831.02 -1562.11)"/><circle cx="596.193" cy="365.044" r="9.39" fill="#d7e2f3" transform="matrix(.66114 0 0 .72206 13831.02 -1490.993)"/><circle cx="596.193" cy="365.044" r="9.39" fill="#d7e2f3" transform="matrix(.66114 0 0 .72206 13896.136 -1704.34)"/><circle cx="596.193" cy="365.044" r="9.39" fill="#d7e2f3" transform="matrix(.66114 0 0 .72206 13896.136 -1633.227)"/><circle cx="596.193" cy="365.044" r="9.39" fill="#d7e2f3" transform="matrix(.66114 0 0 .72206 13961.251 -1704.34)"/><circle cx="596.193" cy="365.044" r="9.39" fill="#d7e2f3" transform="matrix(.66114 0 0 .72206 13961.251 -1633.227)"/><circle cx="596.193" cy="365.044" r="9.39" fill="#d7e2f3" transform="matrix(.66114 0 0 .72206 13896.136 -1562.11)"/><circle cx="596.193" cy="365.044" r="9.39" fill="#d7e2f3" transform="matrix(.66114 0 0 .72206 13896.136 -1490.993)"/><circle cx="596.193" cy="365.044" r="9.39" fill="#d7e2f3" transform="matrix(.66114 0 0 .72206 13961.251 -1562.11)"/><circle cx="596.193" cy="365.044" r="9.39" fill="#d7e2f3" transform="matrix(.66114 0 0 .72206 13961.251 -1490.993)"/><circle cx="596.193" cy="365.044" r="9.39" fill="#d7e2f3" transform="matrix(.66114 0 0 .72206 14026.367 -1704.34)"/><circle cx="596.193" cy="365.044" r="9.39" fill="#d7e2f3" transform="matrix(.66114 0 0 .72206 14026.367 -1633.227)"/><circle cx="596.193" cy="365.044" r="9.39" fill="#d7e2f3" transform="matrix(.66114 0 0 .72206 14091.482 -1704.34)"/><circle cx="596.193" cy="365.044" r="9.39" fill="#d7e2f3" transform="matrix(.66114 0 0 .72206 14091.482 -1633.227)"/><circle cx="596.193" cy="365.044" r="9.39" fill="#d7e2f3" transform="matrix(.66114 0 0 .72206 14026.367 -1562.11)"/><circle cx="596.193" cy="365.044" r="9.39" fill="#d7e2f3" transform="matrix(.66114 0 0 .72206 14026.367 -1490.993)"/><circle cx="596.193" cy="365.044" r="9.39" fill="#d7e2f3" transform="matrix(.66114 0 0 .72206 14091.482 -1562.11)"/><circle cx="596.193" cy="365.044" r="9.39" fill="#d7e2f3" transform="matrix(.66114 0 0 .72206 14091.482 -1490.993)"/><circle cx="596.193" cy="365.044" r="9.39" fill="#d7e2f3" transform="matrix(.66114 0 0 .72206 13831.004 -1419.877)"/><circle cx="596.193" cy="365.044" r="9.39" fill="#d7e2f3" transform="matrix(.66114 0 0 .72206 13831.004 -1348.764)"/><circle cx="596.193" cy="365.044" r="9.39" fill="#d7e2f3" transform="matrix(.66114 0 0 .72206 13831.004 -1277.648)"/><circle cx="596.193" cy="365.044" r="9.39" fill="#d7e2f3" transform="matrix(.66114 0 0 .72206 13831.004 -1206.531)"/><circle cx="596.193" cy="365.044" r="9.39" fill="#d7e2f3" transform="matrix(.66114 0 0 .72206 13896.12 -1419.877)"/><circle cx="596.193" cy="365.044" r="9.39" fill="#d7e2f3" transform="matrix(.66114 0 0 .72206 13896.12 -1348.764)"/><circle cx="596.193" cy="365.044" r="9.39" fill="#d7e2f3" transform="matrix(.66114 0 0 .72206 13961.235 -1419.877)"/><circle cx="596.193" cy="365.044" r="9.39" fill="#d7e2f3" transform="matrix(.66114 0 0 .72206 13961.235 -1348.764)"/><circle cx="596.193" cy="365.044" r="9.39" fill="#d7e2f3" transform="matrix(.66114 0 0 .72206 13896.12 -1277.648)"/><circle cx="596.193" cy="365.044" r="9.39" fill="#d7e2f3" transform="matrix(.66114 0 0 .72206 13896.12 -1206.531)"/><circle cx="596.193" cy="365.044" r="9.39" fill="#d7e2f3" transform="matrix(.66114 0 0 .72206 13961.235 -1277.648)"/><circle cx="596.193" cy="365.044" r="9.39" fill="#d7e2f3" transform="matrix(.66114 0 0 .72206 13961.235 -1206.531)"/><circle cx="596.193" cy="365.044" r="9.39" fill="#d7e2f3" transform="matrix(.66114 0 0 .72206 14026.35 -1419.877)"/><circle cx="596.193" cy="365.044" r="9.39" fill="#d7e2f3" transform="matrix(.66114 0 0 .72206 14026.35 -1348.764)"/><circle cx="596.193" cy="365.044" r="9.39" fill="#d7e2f3" transform="matrix(.66114 0 0 .72206 14091.466 -1419.877)"/><circle cx="596.193" cy="365.044" r="9.39" fill="#d7e2f3" transform="matrix(.66114 0 0 .72206 14091.466 -1348.764)"/><circle cx="596.193" cy="365.044" r="9.39" fill="#d7e2f3" transform="matrix(.66114 0 0 .72206 14026.35 -1277.648)"/><circle cx="596.193" cy="365.044" r="9.39" fill="#d7e2f3" transform="matrix(.66114 0 0 .72206 14026.35 -1206.531)"/><circle cx="596.193" cy="365.044" r="9.39" fill="#d7e2f3" transform="matrix(.66114 0 0 .72206 14091.466 -1277.648)"/><circle cx="596.193" cy="365.044" r="9.39" fill="#d7e2f3" transform="matrix(.66114 0 0 .72206 14091.466 -1206.531)"/><circle cx="596.193" cy="365.044" r="9.39" fill="#d7e2f3" transform="matrix(.66114 0 0 .72206 13831.02 -1135.418)"/><circle cx="596.193" cy="365.044" r="9.39" fill="#d7e2f3" transform="matrix(.66114 0 0 .72206 13831.02 -1064.302)"/><circle cx="596.193" cy="365.044" r="9.39" fill="#d7e2f3" transform="matrix(.66114 0 0 .72206 13831.02 -993.185)"/><circle cx="596.193" cy="365.044" r="9.39" fill="#d7e2f3" transform="matrix(.66114 0 0 .72206 13831.02 -922.072)"/><circle cx="596.193" cy="365.044" r="9.39" fill="#d7e2f3" transform="matrix(.66114 0 0 .72206 13896.136 -1135.418)"/><circle cx="596.193" cy="365.044" r="9.39" fill="#d7e2f3" transform="matrix(.66114 0 0 .72206 13896.136 -1064.302)"/><circle cx="596.193" cy="365.044" r="9.39" fill="#d7e2f3" transform="matrix(.66114 0 0 .72206 13961.251 -1135.418)"/><circle cx="596.193" cy="365.044" r="9.39" fill="#d7e2f3" transform="matrix(.66114 0 0 .72206 13961.251 -1064.302)"/><circle cx="596.193" cy="365.044" r="9.39" fill="#d7e2f3" transform="matrix(.66114 0 0 .72206 13896.136 -993.185)"/><circle cx="596.193" cy="365.044" r="9.39" fill="#d7e2f3" transform="matrix(.66114 0 0 .72206 13896.136 -922.072)"/><circle cx="596.193" cy="365.044" r="9.39" fill="#d7e2f3" transform="matrix(.66114 0 0 .72206 13961.251 -993.185)"/><circle cx="596.193" cy="365.044" r="9.39" fill="#d7e2f3" transform="matrix(.66114 0 0 .72206 13961.251 -922.072)"/><circle cx="596.193" cy="365.044" r="9.39" fill="#d7e2f3" transform="matrix(.66114 0 0 .72206 14026.367 -1135.418)"/><circle cx="596.193" cy="365.044" r="9.39" fill="#d7e2f3" transform="matrix(.66114 0 0 .72206 14026.367 -1064.302)"/><circle cx="596.193" cy="365.044" r="9.39" fill="#d7e2f3" transform="matrix(.66114 0 0 .72206 14091.482 -1135.418)"/><circle cx="596.193" cy="365.044" r="9.39" fill="#d7e2f3" transform="matrix(.66114 0 0 .72206 14091.482 -1064.302)"/><circle cx="596.193" cy="365.044" r="9.39" fill="#d7e2f3" transform="matrix(.66114 0 0 .72206 14026.367 -993.185)"/><circle cx="596.193" cy="365.044" r="9.39" fill="#d7e2f3" transform="matrix(.66114 0 0 .72206 14026.367 -922.072)"/><circle cx="596.193" cy="365.044" r="9.39" fill="#d7e2f3" transform="matrix(.66114 0 0 .72206 14091.482 -993.185)"/><circle cx="596.193" cy="365.044" r="9.39" fill="#d7e2f3" transform="matrix(.66114 0 0 .72206 14091.482 -922.072)"/><circle cx="596.193" cy="365.044" r="9.39" fill="#d7e2f3" transform="matrix(.66114 0 0 .72206 13831.004 -850.956)"/><circle cx="596.193" cy="365.044" r="9.39" fill="#d7e2f3" transform="matrix(.66114 0 0 .72206 13831.004 -779.84)"/><circle cx="596.193" cy="365.044" r="9.39" fill="#d7e2f3" transform="matrix(.66114 0 0 .72206 13831.004 -708.725)"/><circle cx="596.193" cy="365.044" r="9.39" fill="#d7e2f3" transform="matrix(.66114 0 0 .72206 13831.004 -637.61)"/><circle cx="596.193" cy="365.044" r="9.39" fill="#d7e2f3" transform="matrix(.66114 0 0 .72206 13896.12 -850.956)"/><circle cx="596.193" cy="365.044" r="9.39" fill="#d7e2f3" transform="matrix(.66114 0 0 .72206 13896.12 -779.84)"/><circle cx="596.193" cy="365.044" r="9.39" fill="#d7e2f3" transform="matrix(.66114 0 0 .72206 13961.235 -850.956)"/><circle cx="596.193" cy="365.044" r="9.39" fill="#d7e2f3" transform="matrix(.66114 0 0 .72206 13961.235 -779.84)"/><circle cx="596.193" cy="365.044" r="9.39" fill="#d7e2f3" transform="matrix(.66114 0 0 .72206 13896.12 -708.725)"/><circle cx="596.193" cy="365.044" r="9.39" fill="#d7e2f3" transform="matrix(.66114 0 0 .72206 13896.12 -637.61)"/><circle cx="596.193" cy="365.044" r="9.39" fill="#d7e2f3" transform="matrix(.66114 0 0 .72206 13961.235 -708.725)"/><circle cx="596.193" cy="365.044" r="9.39" fill="#d7e2f3" transform="matrix(.66114 0 0 .72206 13961.235 -637.61)"/><circle cx="596.193" cy="365.044" r="9.39" fill="#d7e2f3" transform="matrix(.66114 0 0 .72206 14026.35 -850.956)"/><circle cx="596.193" cy="365.044" r="9.39" fill="#d7e2f3" transform="matrix(.66114 0 0 .72206 14026.35 -779.84)"/><circle cx="596.193" cy="365.044" r="9.39" fill="#d7e2f3" transform="matrix(.66114 0 0 .72206 14091.466 -850.956)"/><circle cx="596.193" cy="365.044" r="9.39" fill="#d7e2f3" transform="matrix(.66114 0 0 .72206 14091.466 -779.84)"/><circle cx="596.193" cy="365.044" r="9.39" fill="#d7e2f3" transform="matrix(.66114 0 0 .72206 14026.35 -708.725)"/><circle cx="596.193" cy="365.044" r="9.39" fill="#d7e2f3" transform="matrix(.66114 0 0 .72206 14026.35 -637.61)"/><circle cx="596.193" cy="365.044" r="9.39" fill="#d7e2f3" transform="matrix(.66114 0 0 .72206 14091.466 -708.725)"/><circle cx="596.193" cy="365.044" r="9.39" fill="#d7e2f3" transform="matrix(.66114 0 0 .72206 14091.466 -637.61)"/><circle cx="596.193" cy="365.044" r="9.39" fill="#d7e2f3" transform="matrix(.66114 0 0 .72206 14156.598 -1704.34)"/><circle cx="596.193" cy="365.044" r="9.39" fill="#d7e2f3" transform="matrix(.66114 0 0 .72206 14156.598 -1633.227)"/><circle cx="596.193" cy="365.044" r="9.39" fill="#d7e2f3" transform="matrix(.66114 0 0 .72206 14221.713 -1704.34)"/><circle cx="596.193" cy="365.044" r="9.39" fill="#d7e2f3" transform="matrix(.66114 0 0 .72206 14221.713 -1633.227)"/><circle cx="596.193" cy="365.044" r="9.39" fill="#d7e2f3" transform="matrix(.66114 0 0 .72206 14156.598 -1562.11)"/><circle cx="596.193" cy="365.044" r="9.39" fill="#d7e2f3" transform="matrix(.66114 0 0 .72206 14156.598 -1490.993)"/><circle cx="596.193" cy="365.044" r="9.39" fill="#d7e2f3" transform="matrix(.66114 0 0 .72206 14221.713 -1562.11)"/><circle cx="596.193" cy="365.044" r="9.39" fill="#d7e2f3" transform="matrix(.66114 0 0 .72206 14221.713 -1490.993)"/><circle cx="596.193" cy="365.044" r="9.39" fill="#d7e2f3" transform="matrix(.66114 0 0 .72206 14286.829 -1704.34)"/><circle cx="596.193" cy="365.044" r="9.39" fill="#d7e2f3" transform="matrix(.66114 0 0 .72206 14286.829 -1633.227)"/><circle cx="596.193" cy="365.044" r="9.39" fill="#d7e2f3" transform="matrix(.66114 0 0 .72206 14351.944 -1704.34)"/><circle cx="596.193" cy="365.044" r="9.39" fill="#d7e2f3" transform="matrix(.66114 0 0 .72206 14351.944 -1633.227)"/><circle cx="596.193" cy="365.044" r="9.39" fill="#d7e2f3" transform="matrix(.66114 0 0 .72206 14286.829 -1562.11)"/><circle cx="596.193" cy="365.044" r="9.39" fill="#d7e2f3" transform="matrix(.66114 0 0 .72206 14286.829 -1490.993)"/><circle cx="596.193" cy="365.044" r="9.39" fill="#d7e2f3" transform="matrix(.66114 0 0 .72206 14351.944 -1562.11)"/><circle cx="596.193" cy="365.044" r="9.39" fill="#d7e2f3" transform="matrix(.66114 0 0 .72206 14351.944 -1490.993)"/><circle cx="596.193" cy="365.044" r="9.39" fill="#d7e2f3" transform="matrix(.66114 0 0 .72206 14417.06 -1704.34)"/><circle cx="596.193" cy="365.044" r="9.39" fill="#d7e2f3" transform="matrix(.66114 0 0 .72206 14417.06 -1633.227)"/><circle cx="596.193" cy="365.044" r="9.39" fill="#d7e2f3" transform="matrix(.66114 0 0 .72206 14482.175 -1704.34)"/><circle cx="596.193" cy="365.044" r="9.39" fill="#d7e2f3" transform="matrix(.66114 0 0 .72206 14482.175 -1633.227)"/><circle cx="596.193" cy="365.044" r="9.39" fill="#d7e2f3" transform="matrix(.66114 0 0 .72206 14417.06 -1562.11)"/><circle cx="596.193" cy="365.044" r="9.39" fill="#d7e2f3" transform="matrix(.66114 0 0 .72206 14417.06 -1490.993)"/><circle cx="596.193" cy="365.044" r="9.39" fill="#d7e2f3" transform="matrix(.66114 0 0 .72206 14482.175 -1562.11)"/><circle cx="596.193" cy="365.044" r="9.39" fill="#d7e2f3" transform="matrix(.66114 0 0 .72206 14482.175 -1490.993)"/><circle cx="596.193" cy="365.044" r="9.39" fill="#d7e2f3" transform="matrix(.66114 0 0 .72206 14547.29 -1704.34)"/><circle cx="596.193" cy="365.044" r="9.39" fill="#d7e2f3" transform="matrix(.66114 0 0 .72206 14547.29 -1633.227)"/><circle cx="596.193" cy="365.044" r="9.39" fill="#d7e2f3" transform="matrix(.66114 0 0 .72206 14612.406 -1704.34)"/><circle cx="596.193" cy="365.044" r="9.39" fill="#d7e2f3" transform="matrix(.66114 0 0 .72206 14612.406 -1633.227)"/><circle cx="596.193" cy="365.044" r="9.39" fill="#d7e2f3" transform="matrix(.66114 0 0 .72206 14547.29 -1562.11)"/><circle cx="596.193" cy="365.044" r="9.39" fill="#d7e2f3" transform="matrix(.66114 0 0 .72206 14547.29 -1490.993)"/><circle cx="596.193" cy="365.044" r="9.39" fill="#d7e2f3" transform="matrix(.66114 0 0 .72206 14612.406 -1562.11)"/><circle cx="596.193" cy="365.044" r="9.39" fill="#d7e2f3" transform="matrix(.66114 0 0 .72206 14612.406 -1490.993)"/><circle cx="596.193" cy="365.044" r="9.39" fill="#d7e2f3" transform="matrix(.66114 0 0 .72206 14156.581 -1419.877)"/><circle cx="596.193" cy="365.044" r="9.39" fill="#d7e2f3" transform="matrix(.66114 0 0 .72206 14156.581 -1348.764)"/><circle cx="596.193" cy="365.044" r="9.39" fill="#d7e2f3" transform="matrix(.66114 0 0 .72206 14221.697 -1419.877)"/><circle cx="596.193" cy="365.044" r="9.39" fill="#d7e2f3" transform="matrix(.66114 0 0 .72206 14221.697 -1348.764)"/><circle cx="596.193" cy="365.044" r="9.39" fill="#d7e2f3" transform="matrix(.66114 0 0 .72206 14156.581 -1277.648)"/><circle cx="596.193" cy="365.044" r="9.39" fill="#d7e2f3" transform="matrix(.66114 0 0 .72206 14156.581 -1206.531)"/><circle cx="596.193" cy="365.044" r="9.39" fill="#d7e2f3" transform="matrix(.66114 0 0 .72206 14221.697 -1277.648)"/><circle cx="596.193" cy="365.044" r="9.39" fill="#d7e2f3" transform="matrix(.66114 0 0 .72206 14221.697 -1206.531)"/><circle cx="596.193" cy="365.044" r="9.39" fill="#d7e2f3" transform="matrix(.66114 0 0 .72206 14286.812 -1419.877)"/><circle cx="596.193" cy="365.044" r="9.39" fill="#d7e2f3" transform="matrix(.66114 0 0 .72206 14286.812 -1348.764)"/><circle cx="596.193" cy="365.044" r="9.39" fill="#d7e2f3" transform="matrix(.66114 0 0 .72206 14351.928 -1419.877)"/><circle cx="596.193" cy="365.044" r="9.39" fill="#d7e2f3" transform="matrix(.66114 0 0 .72206 14351.928 -1348.764)"/><circle cx="596.193" cy="365.044" r="9.39" fill="#d7e2f3" transform="matrix(.66114 0 0 .72206 14286.812 -1277.648)"/><circle cx="596.193" cy="365.044" r="9.39" fill="#d7e2f3" transform="matrix(.66114 0 0 .72206 14286.812 -1206.531)"/><circle cx="596.193" cy="365.044" r="9.39" fill="#d7e2f3" transform="matrix(.66114 0 0 .72206 14351.928 -1277.648)"/><circle cx="596.193" cy="365.044" r="9.39" fill="#d7e2f3" transform="matrix(.66114 0 0 .72206 14351.928 -1206.531)"/><circle cx="596.193" cy="365.044" r="9.39" fill="#d7e2f3" transform="matrix(.66114 0 0 .72206 14417.043 -1419.877)"/><circle cx="596.193" cy="365.044" r="9.39" fill="#d7e2f3" transform="matrix(.66114 0 0 .72206 14417.043 -1348.764)"/><circle cx="596.193" cy="365.044" r="9.39" fill="#d7e2f3" transform="matrix(.66114 0 0 .72206 14482.159 -1419.877)"/><circle cx="596.193" cy="365.044" r="9.39" fill="#d7e2f3" transform="matrix(.66114 0 0 .72206 14482.159 -1348.764)"/><circle cx="596.193" cy="365.044" r="9.39" fill="#d7e2f3" transform="matrix(.66114 0 0 .72206 14417.043 -1277.648)"/><circle cx="596.193" cy="365.044" r="9.39" fill="#d7e2f3" transform="matrix(.66114 0 0 .72206 14417.043 -1206.531)"/><circle cx="596.193" cy="365.044" r="9.39" fill="#d7e2f3" transform="matrix(.66114 0 0 .72206 14482.159 -1277.648)"/><circle cx="596.193" cy="365.044" r="9.39" fill="#d7e2f3" transform="matrix(.66114 0 0 .72206 14482.159 -1206.531)"/><circle cx="596.193" cy="365.044" r="9.39" fill="#d7e2f3" transform="matrix(.66114 0 0 .72206 14547.274 -1419.877)"/><circle cx="596.193" cy="365.044" r="9.39" fill="#d7e2f3" transform="matrix(.66114 0 0 .72206 14547.274 -1348.764)"/><circle cx="596.193" cy="365.044" r="9.39" fill="#d7e2f3" transform="matrix(.66114 0 0 .72206 14612.39 -1419.877)"/><circle cx="596.193" cy="365.044" r="9.39" fill="#d7e2f3" transform="matrix(.66114 0 0 .72206 14612.39 -1348.764)"/><circle cx="596.193" cy="365.044" r="9.39" fill="#d7e2f3" transform="matrix(.66114 0 0 .72206 14547.274 -1277.648)"/><circle cx="596.193" cy="365.044" r="9.39" fill="#d7e2f3" transform="matrix(.66114 0 0 .72206 14547.274 -1206.531)"/><circle cx="596.193" cy="365.044" r="9.39" fill="#d7e2f3" transform="matrix(.66114 0 0 .72206 14612.39 -1277.648)"/><circle cx="596.193" cy="365.044" r="9.39" fill="#d7e2f3" transform="matrix(.66114 0 0 .72206 14612.39 -1206.531)"/><circle cx="596.193" cy="365.044" r="9.39" fill="#d7e2f3" transform="matrix(.66114 0 0 .72206 14156.598 -1135.418)"/><circle cx="596.193" cy="365.044" r="9.39" fill="#d7e2f3" transform="matrix(.66114 0 0 .72206 14156.598 -1064.302)"/><circle cx="596.193" cy="365.044" r="9.39" fill="#d7e2f3" transform="matrix(.66114 0 0 .72206 14221.713 -1135.418)"/><circle cx="596.193" cy="365.044" r="9.39" fill="#d7e2f3" transform="matrix(.66114 0 0 .72206 14221.713 -1064.302)"/><circle cx="596.193" cy="365.044" r="9.39" fill="#d7e2f3" transform="matrix(.66114 0 0 .72206 14156.598 -993.185)"/><circle cx="596.193" cy="365.044" r="9.39" fill="#d7e2f3" transform="matrix(.66114 0 0 .72206 14156.598 -922.072)"/><circle cx="596.193" cy="365.044" r="9.39" fill="#d7e2f3" transform="matrix(.66114 0 0 .72206 14221.713 -993.185)"/><circle cx="596.193" cy="365.044" r="9.39" fill="#d7e2f3" transform="matrix(.66114 0 0 .72206 14221.713 -922.072)"/><circle cx="596.193" cy="365.044" r="9.39" fill="#d7e2f3" transform="matrix(.66114 0 0 .72206 14286.829 -1135.418)"/><circle cx="596.193" cy="365.044" r="9.39" fill="#d7e2f3" transform="matrix(.66114 0 0 .72206 14286.829 -1064.302)"/><circle cx="596.193" cy="365.044" r="9.39" fill="#d7e2f3" transform="matrix(.66114 0 0 .72206 14351.944 -1135.418)"/><circle cx="596.193" cy="365.044" r="9.39" fill="#d7e2f3" transform="matrix(.66114 0 0 .72206 14351.944 -1064.302)"/><circle cx="596.193" cy="365.044" r="9.39" fill="#d7e2f3" transform="matrix(.66114 0 0 .72206 14286.829 -993.185)"/><circle cx="596.193" cy="365.044" r="9.39" fill="#d7e2f3" transform="matrix(.66114 0 0 .72206 14286.829 -922.072)"/><circle cx="596.193" cy="365.044" r="9.39" fill="#d7e2f3" transform="matrix(.66114 0 0 .72206 14351.944 -993.185)"/><circle cx="596.193" cy="365.044" r="9.39" fill="#d7e2f3" transform="matrix(.66114 0 0 .72206 14351.944 -922.072)"/><circle cx="596.193" cy="365.044" r="9.39" fill="#d7e2f3" transform="matrix(.66114 0 0 .72206 14417.06 -1135.418)"/><circle cx="596.193" cy="365.044" r="9.39" fill="#d7e2f3" transform="matrix(.66114 0 0 .72206 14417.06 -1064.302)"/><circle cx="596.193" cy="365.044" r="9.39" fill="#d7e2f3" transform="matrix(.66114 0 0 .72206 14482.175 -1135.418)"/><circle cx="596.193" cy="365.044" r="9.39" fill="#d7e2f3" transform="matrix(.66114 0 0 .72206 14482.175 -1064.302)"/><circle cx="596.193" cy="365.044" r="9.39" fill="#d7e2f3" transform="matrix(.66114 0 0 .72206 14417.06 -993.185)"/><circle cx="596.193" cy="365.044" r="9.39" fill="#d7e2f3" transform="matrix(.66114 0 0 .72206 14417.06 -922.072)"/><circle cx="596.193" cy="365.044" r="9.39" fill="#d7e2f3" transform="matrix(.66114 0 0 .72206 14482.175 -993.185)"/><circle cx="596.193" cy="365.044" r="9.39" fill="#d7e2f3" transform="matrix(.66114 0 0 .72206 14482.175 -922.072)"/><circle cx="596.193" cy="365.044" r="9.39" fill="#d7e2f3" transform="matrix(.66114 0 0 .72206 14547.29 -1135.418)"/><circle cx="596.193" cy="365.044" r="9.39" fill="#d7e2f3" transform="matrix(.66114 0 0 .72206 14547.29 -1064.302)"/><circle cx="596.193" cy="365.044" r="9.39" fill="#d7e2f3" transform="matrix(.66114 0 0 .72206 14612.406 -1135.418)"/><circle cx="596.193" cy="365.044" r="9.39" fill="#d7e2f3" transform="matrix(.66114 0 0 .72206 14612.406 -1064.302)"/><circle cx="596.193" cy="365.044" r="9.39" fill="#d7e2f3" transform="matrix(.66114 0 0 .72206 14547.29 -993.185)"/><circle cx="596.193" cy="365.044" r="9.39" fill="#d7e2f3" transform="matrix(.66114 0 0 .72206 14547.29 -922.072)"/><circle cx="596.193" cy="365.044" r="9.39" fill="#d7e2f3" transform="matrix(.66114 0 0 .72206 14612.406 -993.185)"/><circle cx="596.193" cy="365.044" r="9.39" fill="#d7e2f3" transform="matrix(.66114 0 0 .72206 14612.406 -922.072)"/><circle cx="596.193" cy="365.044" r="9.39" fill="#d7e2f3" transform="matrix(.66114 0 0 .72206 14156.581 -850.956)"/><circle cx="596.193" cy="365.044" r="9.39" fill="#d7e2f3" transform="matrix(.66114 0 0 .72206 14156.581 -779.84)"/><circle cx="596.193" cy="365.044" r="9.39" fill="#d7e2f3" transform="matrix(.66114 0 0 .72206 14221.697 -850.956)"/><circle cx="596.193" cy="365.044" r="9.39" fill="#d7e2f3" transform="matrix(.66114 0 0 .72206 14221.697 -779.84)"/><circle cx="596.193" cy="365.044" r="9.39" fill="#d7e2f3" transform="matrix(.66114 0 0 .72206 14156.581 -708.725)"/><circle cx="596.193" cy="365.044" r="9.39" fill="#d7e2f3" transform="matrix(.66114 0 0 .72206 14156.581 -637.61)"/><circle cx="596.193" cy="365.044" r="9.39" fill="#d7e2f3" transform="matrix(.66114 0 0 .72206 14221.697 -708.725)"/><circle cx="596.193" cy="365.044" r="9.39" fill="#d7e2f3" transform="matrix(.66114 0 0 .72206 14221.697 -637.61)"/><circle cx="596.193" cy="365.044" r="9.39" fill="#d7e2f3" transform="matrix(.66114 0 0 .72206 14286.812 -850.956)"/><circle cx="596.193" cy="365.044" r="9.39" fill="#d7e2f3" transform="matrix(.66114 0 0 .72206 14286.812 -779.84)"/><circle cx="596.193" cy="365.044" r="9.39" fill="#d7e2f3" transform="matrix(.66114 0 0 .72206 14351.928 -850.956)"/><circle cx="596.193" cy="365.044" r="9.39" fill="#d7e2f3" transform="matrix(.66114 0 0 .72206 14351.928 -779.84)"/><circle cx="596.193" cy="365.044" r="9.39" fill="#d7e2f3" transform="matrix(.66114 0 0 .72206 14286.812 -708.725)"/><circle cx="596.193" cy="365.044" r="9.39" fill="#d7e2f3" transform="matrix(.66114 0 0 .72206 14286.812 -637.61)"/><circle cx="596.193" cy="365.044" r="9.39" fill="#d7e2f3" transform="matrix(.66114 0 0 .72206 14351.928 -708.725)"/><circle cx="596.193" cy="365.044" r="9.39" fill="#d7e2f3" transform="matrix(.66114 0 0 .72206 14351.928 -637.61)"/><circle cx="596.193" cy="365.044" r="9.39" fill="#d7e2f3" transform="matrix(.66114 0 0 .72206 14417.043 -850.956)"/><circle cx="596.193" cy="365.044" r="9.39" fill="#d7e2f3" transform="matrix(.66114 0 0 .72206 14417.043 -779.84)"/><circle cx="596.193" cy="365.044" r="9.39" fill="#d7e2f3" transform="matrix(.66114 0 0 .72206 14482.159 -850.956)"/><circle cx="596.193" cy="365.044" r="9.39" fill="#d7e2f3" transform="matrix(.66114 0 0 .72206 14482.159 -779.84)"/><circle cx="596.193" cy="365.044" r="9.39" fill="#d7e2f3" transform="matrix(.66114 0 0 .72206 14417.043 -708.725)"/><circle cx="596.193" cy="365.044" r="9.39" fill="#d7e2f3" transform="matrix(.66114 0 0 .72206 14417.043 -637.61)"/><circle cx="596.193" cy="365.044" r="9.39" fill="#d7e2f3" transform="matrix(.66114 0 0 .72206 14482.159 -708.725)"/><circle cx="596.193" cy="365.044" r="9.39" fill="#d7e2f3" transform="matrix(.66114 0 0 .72206 14482.159 -637.61)"/><circle cx="596.193" cy="365.044" r="9.39" fill="#d7e2f3" transform="matrix(.66114 0 0 .72206 14547.274 -850.956)"/><circle cx="596.193" cy="365.044" r="9.39" fill="#d7e2f3" transform="matrix(.66114 0 0 .72206 14547.274 -779.84)"/><circle cx="596.193" cy="365.044" r="9.39" fill="#d7e2f3" transform="matrix(.66114 0 0 .72206 14612.39 -850.956)"/><circle cx="596.193" cy="365.044" r="9.39" fill="#d7e2f3" transform="matrix(.66114 0 0 .72206 14612.39 -779.84)"/><circle cx="596.193" cy="365.044" r="9.39" fill="#d7e2f3" transform="matrix(.66114 0 0 .72206 14547.274 -708.725)"/><circle cx="596.193" cy="365.044" r="9.39" fill="#d7e2f3" transform="matrix(.66114 0 0 .72206 14547.274 -637.61)"/><circle cx="596.193" cy="365.044" r="9.39" fill="#d7e2f3" transform="matrix(.66114 0 0 .72206 14612.39 -708.725)"/><circle cx="596.193" cy="365.044" r="9.39" fill="#d7e2f3" transform="matrix(.66114 0 0 .72206 14612.39 -637.61)"/><circle cx="596.193" cy="365.044" r="9.39" fill="#d7e2f3" transform="matrix(.66114 0 0 .72206 14677.538 -1704.34)"/><circle cx="596.193" cy="365.044" r="9.39" fill="#d7e2f3" transform="matrix(.66114 0 0 .72206 14677.538 -1633.227)"/><circle cx="596.193" cy="365.044" r="9.39" fill="#d7e2f3" transform="matrix(.66114 0 0 .72206 14742.654 -1704.34)"/><circle cx="596.193" cy="365.044" r="9.39" fill="#d7e2f3" transform="matrix(.66114 0 0 .72206 14742.654 -1633.227)"/><circle cx="596.193" cy="365.044" r="9.39" fill="#d7e2f3" transform="matrix(.66114 0 0 .72206 14677.538 -1562.11)"/><circle cx="596.193" cy="365.044" r="9.39" fill="#d7e2f3" transform="matrix(.66114 0 0 .72206 14677.538 -1490.993)"/><circle cx="596.193" cy="365.044" r="9.39" fill="#d7e2f3" transform="matrix(.66114 0 0 .72206 14742.654 -1562.11)"/><circle cx="596.193" cy="365.044" r="9.39" fill="#d7e2f3" transform="matrix(.66114 0 0 .72206 14742.654 -1490.993)"/><circle cx="596.193" cy="365.044" r="9.39" fill="#d7e2f3" transform="matrix(.66114 0 0 .72206 14807.77 -1704.34)"/><circle cx="596.193" cy="365.044" r="9.39" fill="#d7e2f3" transform="matrix(.66114 0 0 .72206 14807.77 -1633.227)"/><circle cx="596.193" cy="365.044" r="9.39" fill="#d7e2f3" transform="matrix(.66114 0 0 .72206 14872.882 -1704.34)"/><circle cx="596.193" cy="365.044" r="9.39" fill="#d7e2f3" transform="matrix(.66114 0 0 .72206 14872.882 -1633.227)"/><circle cx="596.193" cy="365.044" r="9.39" fill="#d7e2f3" transform="matrix(.66114 0 0 .72206 14807.77 -1562.11)"/><circle cx="596.193" cy="365.044" r="9.39" fill="#d7e2f3" transform="matrix(.66114 0 0 .72206 14807.77 -1490.993)"/><circle cx="596.193" cy="365.044" r="9.39" fill="#d7e2f3" transform="matrix(.66114 0 0 .72206 14872.882 -1562.11)"/><circle cx="596.193" cy="365.044" r="9.39" fill="#d7e2f3" transform="matrix(.66114 0 0 .72206 14872.882 -1490.993)"/><circle cx="596.193" cy="365.044" r="9.39" fill="#d7e2f3" transform="matrix(.66114 0 0 .72206 14677.522 -1419.877)"/><circle cx="596.193" cy="365.044" r="9.39" fill="#d7e2f3" transform="matrix(.66114 0 0 .72206 14677.522 -1348.764)"/><circle cx="596.193" cy="365.044" r="9.39" fill="#d7e2f3" transform="matrix(.66114 0 0 .72206 14742.636 -1419.877)"/><circle cx="596.193" cy="365.044" r="9.39" fill="#d7e2f3" transform="matrix(.66114 0 0 .72206 14742.636 -1348.764)"/><circle cx="596.193" cy="365.044" r="9.39" fill="#d7e2f3" transform="matrix(.66114 0 0 .72206 14677.522 -1277.648)"/><circle cx="596.193" cy="365.044" r="9.39" fill="#d7e2f3" transform="matrix(.66114 0 0 .72206 14677.522 -1206.531)"/><circle cx="596.193" cy="365.044" r="9.39" fill="#d7e2f3" transform="matrix(.66114 0 0 .72206 14742.636 -1277.648)"/><circle cx="596.193" cy="365.044" r="9.39" fill="#d7e2f3" transform="matrix(.66114 0 0 .72206 14742.636 -1206.531)"/><circle cx="596.193" cy="365.044" r="9.39" fill="#d7e2f3" transform="matrix(.66114 0 0 .72206 14807.753 -1419.877)"/><circle cx="596.193" cy="365.044" r="9.39" fill="#d7e2f3" transform="matrix(.66114 0 0 .72206 14807.753 -1348.764)"/><circle cx="596.193" cy="365.044" r="9.39" fill="#d7e2f3" transform="matrix(.66114 0 0 .72206 14872.87 -1419.877)"/><circle cx="596.193" cy="365.044" r="9.39" fill="#d7e2f3" transform="matrix(.66114 0 0 .72206 14872.87 -1348.764)"/><circle cx="596.193" cy="365.044" r="9.39" fill="#d7e2f3" transform="matrix(.66114 0 0 .72206 14807.753 -1277.648)"/><circle cx="596.193" cy="365.044" r="9.39" fill="#d7e2f3" transform="matrix(.66114 0 0 .72206 14807.753 -1206.531)"/><circle cx="596.193" cy="365.044" r="9.39" fill="#d7e2f3" transform="matrix(.66114 0 0 .72206 14872.87 -1277.648)"/><circle cx="596.193" cy="365.044" r="9.39" fill="#d7e2f3" transform="matrix(.66114 0 0 .72206 14872.87 -1206.531)"/><circle cx="596.193" cy="365.044" r="9.39" fill="#d7e2f3" transform="matrix(.66114 0 0 .72206 14677.538 -1135.418)"/><circle cx="596.193" cy="365.044" r="9.39" fill="#d7e2f3" transform="matrix(.66114 0 0 .72206 14677.538 -1064.302)"/><circle cx="596.193" cy="365.044" r="9.39" fill="#d7e2f3" transform="matrix(.66114 0 0 .72206 14742.654 -1135.418)"/><circle cx="596.193" cy="365.044" r="9.39" fill="#d7e2f3" transform="matrix(.66114 0 0 .72206 14742.654 -1064.302)"/><circle cx="596.193" cy="365.044" r="9.39" fill="#d7e2f3" transform="matrix(.66114 0 0 .72206 14677.538 -993.185)"/><circle cx="596.193" cy="365.044" r="9.39" fill="#d7e2f3" transform="matrix(.66114 0 0 .72206 14677.538 -922.072)"/><circle cx="596.193" cy="365.044" r="9.39" fill="#d7e2f3" transform="matrix(.66114 0 0 .72206 14742.654 -993.185)"/><circle cx="596.193" cy="365.044" r="9.39" fill="#d7e2f3" transform="matrix(.66114 0 0 .72206 14742.654 -922.072)"/><circle cx="596.193" cy="365.044" r="9.39" fill="#d7e2f3" transform="matrix(.66114 0 0 .72206 14807.77 -1135.418)"/><circle cx="596.193" cy="365.044" r="9.39" fill="#d7e2f3" transform="matrix(.66114 0 0 .72206 14807.77 -1064.302)"/><circle cx="596.193" cy="365.044" r="9.39" fill="#d7e2f3" transform="matrix(.66114 0 0 .72206 14872.882 -1135.418)"/><circle cx="596.193" cy="365.044" r="9.39" fill="#d7e2f3" transform="matrix(.66114 0 0 .72206 14872.882 -1064.302)"/><circle cx="596.193" cy="365.044" r="9.39" fill="#d7e2f3" transform="matrix(.66114 0 0 .72206 14807.77 -993.185)"/><circle cx="596.193" cy="365.044" r="9.39" fill="#d7e2f3" transform="matrix(.66114 0 0 .72206 14807.77 -922.072)"/><circle cx="596.193" cy="365.044" r="9.39" fill="#d7e2f3" transform="matrix(.66114 0 0 .72206 14872.882 -993.185)"/><circle cx="596.193" cy="365.044" r="9.39" fill="#d7e2f3" transform="matrix(.66114 0 0 .72206 14872.882 -922.072)"/><circle cx="596.193" cy="365.044" r="9.39" fill="#d7e2f3" transform="matrix(.66114 0 0 .72206 14677.522 -850.956)"/><circle cx="596.193" cy="365.044" r="9.39" fill="#d7e2f3" transform="matrix(.66114 0 0 .72206 14677.522 -779.84)"/><circle cx="596.193" cy="365.044" r="9.39" fill="#d7e2f3" transform="matrix(.66114 0 0 .72206 14742.636 -850.956)"/><circle cx="596.193" cy="365.044" r="9.39" fill="#d7e2f3" transform="matrix(.66114 0 0 .72206 14742.636 -779.84)"/><circle cx="596.193" cy="365.044" r="9.39" fill="#d7e2f3" transform="matrix(.66114 0 0 .72206 14677.522 -708.725)"/><circle cx="596.193" cy="365.044" r="9.39" fill="#d7e2f3" transform="matrix(.66114 0 0 .72206 14677.522 -637.61)"/><circle cx="596.193" cy="365.044" r="9.39" fill="#d7e2f3" transform="matrix(.66114 0 0 .72206 14742.636 -708.725)"/><circle cx="596.193" cy="365.044" r="9.39" fill="#d7e2f3" transform="matrix(.66114 0 0 .72206 14742.636 -637.61)"/><circle cx="596.193" cy="365.044" r="9.39" fill="#d7e2f3" transform="matrix(.66114 0 0 .72206 14807.753 -850.956)"/><circle cx="596.193" cy="365.044" r="9.39" fill="#d7e2f3" transform="matrix(.66114 0 0 .72206 14807.753 -779.84)"/><circle cx="596.193" cy="365.044" r="9.39" fill="#d7e2f3" transform="matrix(.66114 0 0 .72206 14872.87 -850.956)"/><circle cx="596.193" cy="365.044" r="9.39" fill="#d7e2f3" transform="matrix(.66114 0 0 .72206 14872.87 -779.84)"/><circle cx="596.193" cy="365.044" r="9.39" fill="#d7e2f3" transform="matrix(.66114 0 0 .72206 14807.753 -708.725)"/><circle cx="596.193" cy="365.044" r="9.39" fill="#d7e2f3" transform="matrix(.66114 0 0 .72206 14807.753 -637.61)"/><circle cx="596.193" cy="365.044" r="9.39" fill="#d7e2f3" transform="matrix(.66114 0 0 .72206 14872.87 -708.725)"/><circle cx="596.193" cy="365.044" r="9.39" fill="#d7e2f3" transform="matrix(.66114 0 0 .72206 14872.87 -637.61)"/></g></g></svg>
