<svg

  viewBox="0 0 251 251"
  xmlns="http://www.w3.org/2000/svg"
  fill-rule="evenodd"
  clip-rule="evenodd"
  stroke-linejoin="round"
  stroke-miterlimit="2"
>
  <path fill="none" d="M0 0h250.02v250.02H0z" />
  <path
    d="M62.734 177.59L83.827 42.626a3.895 3.895 0 017.283-1.237l21.813 40.684 8.695-16.554a3.895 3.895 0 016.894 0l58.866 112.073H62.734z"
    fill="#ffa000"
    fill-rule="nonzero"
  />
  <path
    d="M135.602 125.015l-22.69-42.963-50.178 95.539 72.868-52.576z"
    fill="#f57c00"
    fill-rule="nonzero"
  />
  <path
    d="M187.38 177.59l-16.156-99.969a3.902 3.902 0 00-2.657-3.06 3.89 3.89 0 00-3.936.957L62.734 177.589l56.383 31.619a11.685 11.685 0 0011.393 0l56.87-31.619v.002z"
    fill="#ffca28"
    fill-rule="nonzero"
  />
  <path
    d="M171.224 77.621a3.902 3.902 0 00-2.657-3.06 3.89 3.89 0 00-3.936.957l-20.224 20.274-15.903-30.275a3.896 3.896 0 00-6.895 0l-8.695 16.555L91.1 41.388a3.895 3.895 0 00-7.283 1.246L62.734 177.59h-.068l.068.077.555.273 101.313-101.43a3.897 3.897 0 016.603 2.104l16.017 99.072.157-.096-16.155-99.97zM62.92 177.405L83.827 43.588a3.893 3.893 0 013.193-3.248 3.898 3.898 0 014.092 2.002l21.811 40.684 8.695-16.553a3.895 3.895 0 016.894 0l15.581 29.632-81.175 81.3h.001z"
    fill="#fff"
    fill-opacity=".2"
    fill-rule="nonzero"
  />
  <path
    d="M130.51 208.254a11.685 11.685 0 01-11.393 0l-56.246-31.53-.137.867 56.383 31.609a11.685 11.685 0 0011.393 0l56.87-31.61-.147-.895-56.723 31.56z"
    fill="#a52714"
    fill-opacity=".2"
    fill-rule="nonzero"
  />
  <path
    d="M106.687 35.274a2.964 2.964 0 00-5.025-1.608l-15.415 15.5-12.12-23.146a2.968 2.968 0 00-2.627-1.591 2.968 2.968 0 00-2.627 1.591l-6.628 12.657L45.62 7.573a2.966 2.966 0 00-5.552.953L24 111.701l42.973 24.165a8.878 8.878 0 008.683 0L119 111.701l-12.313-76.427z"
    fill="url(#_Linear1)"
    fill-rule="nonzero"
    transform="translate(31.573 31.523) scale(1.30746)"
  />
  <defs>
    <linearGradient
      id="_Linear1"
      x1="0"
      y1="0"
      x2="1"
      y2="0"
      gradientUnits="userSpaceOnUse"
      gradientTransform="rotate(45.086 -23.742 39.063) scale(140.3656)"
    >
      <stop offset="0" stop-color="#fff" stop-opacity=".1" />
      <stop offset=".14" stop-color="#fff" stop-opacity=".08" />
      <stop offset=".61" stop-color="#fff" stop-opacity=".02" />
      <stop offset="1" stop-color="#fff" stop-opacity="0" />
    </linearGradient>
  </defs>
</svg>
