<svg xmlns="http://www.w3.org/2000/svg" viewBox="0 0 251 251" fill-rule="evenodd" clip-rule="evenodd" stroke-linejoin="round" stroke-miterlimit="1.414"><path fill="none" d="M0 0h250.02v250.02H0z"/><clipPath id="a"><path d="M0 0h250.02v250.02H0z"/></clipPath><g clip-path="url(#a)"><path d="M206.633 117.69l-74.126-74.097c-4.238-4.23-11.203-4.23-15.441 0l-15.338 15.383 19.507 19.506a12.947 12.947 0 014.125-.673c7.115 0 12.97 5.855 12.97 12.97 0 1.446-.242 2.881-.715 4.247l18.866 18.807a12.966 12.966 0 014.214-.703c7.124 0 12.985 5.861 12.985 12.985a12.99 12.99 0 01-12.993 12.987c-7.132 0-13-5.868-13-13a13 13 0 01.977-4.943l-17.512-17.541v46.161a13.002 13.002 0 017.228 11.639c0 7.123-5.862 12.984-12.984 12.984-7.124 0-12.985-5.86-12.985-12.984 0-5.255 3.19-10.014 8.05-12.011v-46.608a12.824 12.824 0 01-4.259-2.83 13.024 13.024 0 01-2.8-14.205L94.18 66.525l-50.792 50.792c-4.24 4.24-4.24 11.217 0 15.457l74.066 74.066c4.24 4.24 11.217 4.24 15.456 0l73.724-73.724c4.24-4.24 4.24-11.217 0-15.456" fill="#f05133" fill-rule="nonzero"/></g></svg>
