<svg
  xmlns="http://www.w3.org/2000/svg"
  viewBox="0 0 251 251"
  fill-rule="evenodd"
  clip-rule="evenodd"
  stroke-linejoin="round"
  stroke-miterlimit="1.414"
>
  <path fill="none" d="M0 0h250.02v250.02H0z" />
  <g>
    <path
      fill="#f7df1e"
      fill-rule="nonzero"
      d="M39.33 39.33H210.69V210.69H39.33z"
    />
    <path
      d="M84.386 182.532l13.114-7.937c2.53 4.486 4.832 8.281 10.352 8.281 5.292 0 8.628-2.07 8.628-10.121V118h16.103v54.981c0 16.68-9.776 24.272-24.04 24.272-12.883 0-20.36-6.672-24.157-14.724m56.944-1.724l13.113-7.592c3.451 5.637 7.937 9.778 15.874 9.778 6.673 0 10.927-3.336 10.927-7.937 0-5.522-4.37-7.477-11.733-10.697l-4.024-1.727c-11.619-4.945-19.326-11.157-19.326-24.27 0-12.078 9.202-21.28 23.581-21.28 10.238 0 17.6 3.565 22.89 12.883l-12.538 8.052c-2.761-4.946-5.75-6.902-10.352-6.902-4.716 0-7.707 2.991-7.707 6.902 0 4.831 2.99 6.787 9.892 9.778l4.025 1.725c13.689 5.867 21.396 11.848 21.396 25.306 0 14.494-11.387 22.43-26.686 22.43-14.954 0-24.616-7.131-29.332-16.449"
      fill-rule="nonzero"
    />
  </g>
</svg>
