<svg
  xmlns="http://www.w3.org/2000/svg"

  viewBox="0 0 251 251"
  fill-rule="evenodd"
  clip-rule="evenodd"
  stroke-linejoin="round"
  stroke-miterlimit="1.414"
>
  <path fill="none" d="M0 0h250.02v250.02H0z" />

  <g>
    <path
      d="M123.756 191.962a4.155 4.155 0 01-2.071-.554l-6.592-3.902c-.985-.55-.504-.746-.18-.857 1.313-.46 1.58-.564 2.98-1.36.148-.084.341-.054.492.035l5.064 3.005a.667.667 0 00.611 0l19.745-11.397a.623.623 0 00.302-.534v-22.784a.635.635 0 00-.306-.544l-19.736-11.388a.608.608 0 00-.608 0l-19.734 11.388a.63.63 0 00-.312.539v22.784c0 .218.118.425.306.529l5.407 3.123c2.936 1.468 4.73-.261 4.73-2.001v-22.488c0-.321.252-.568.573-.568h2.501c.312 0 .568.247.568.568v22.498c0 3.914-2.135 6.163-5.846 6.163-1.142 0-2.042 0-4.552-1.236l-5.18-2.985a4.174 4.174 0 01-2.07-3.603v-22.784c0-1.483.79-2.867 2.07-3.598l19.765-11.403c1.25-.706 2.91-.706 4.151 0l19.74 11.407a4.166 4.166 0 012.071 3.599v22.784a4.177 4.177 0 01-2.07 3.598l-19.74 11.402a4.147 4.147 0 01-2.081.553"
      fill="#689f63"
      fill-rule="nonzero"
    />
    <path
      d="M129.855 176.262c-8.64 0-10.451-3.966-10.451-7.292 0-.316.255-.569.572-.569h2.55c.282 0 .519.206.563.484.386 2.599 1.533 3.91 6.757 3.91 4.16 0 5.93-.94 5.93-3.147 0-1.27-.504-2.215-6.968-2.847-5.407-.534-8.748-1.725-8.748-6.05 0-3.983 3.36-6.356 8.99-6.356 6.321 0 9.455 2.195 9.85 6.91a.576.576 0 01-.573.623h-2.565a.567.567 0 01-.554-.445c-.618-2.733-2.11-3.608-6.168-3.608-4.542 0-5.07 1.581-5.07 2.767 0 1.439.622 1.859 6.75 2.67 6.07.805 8.95 1.942 8.95 6.207 0 4.3-3.587 6.766-9.844 6.766m24.05-24.163h.662c.544 0 .647-.38.647-.603 0-.583-.4-.583-.622-.583h-.682l-.006 1.186zm-.806-1.868h1.468c.504 0 1.492 0 1.492 1.127 0 .785-.504.949-.805 1.047.588.04.628.425.707.97.04.34.103.928.222 1.126h-.905c-.024-.198-.163-1.285-.163-1.345-.059-.242-.143-.36-.444-.36h-.747v1.71h-.825v-4.275zm-1.765 2.125a3.194 3.194 0 003.183 3.202c1.77 0 3.198-1.462 3.198-3.202 0-1.774-1.448-3.183-3.203-3.183a3.176 3.176 0 00-3.182 3.178m6.998.015a3.817 3.817 0 01-3.806 3.806 3.814 3.814 0 01-3.806-3.806c0-2.155 1.77-3.806 3.806-3.806 2.051 0 3.8 1.656 3.8 3.806"
      fill="#689f63"
      fill-rule="nonzero"
    />
    <path
      d="M62.613 102.811c0-.91-.48-1.745-1.265-2.197L40.415 88.57a2.446 2.446 0 00-1.15-.331h-.217a2.486 2.486 0 00-1.157.33l-20.933 12.045a2.548 2.548 0 00-1.266 2.2l.046 32.442c0 .45.232.87.627 1.092.386.237.87.237 1.256 0l12.445-7.127a2.553 2.553 0 001.265-2.194V111.87c0-.905.48-1.74 1.263-2.19l5.298-3.052a2.516 2.516 0 012.523 0l5.295 3.05a2.523 2.523 0 011.266 2.19v15.155c0 .9.485 1.73 1.267 2.194l12.437 7.122c.39.233.876.233 1.266 0a1.27 1.27 0 00.626-1.092l.04-32.437zm98.782 16.891c0 .226-.12.435-.316.547l-7.19 4.145a.633.633 0 01-.631 0l-7.191-4.145a.626.626 0 01-.317-.547v-8.301c0-.226.119-.435.311-.549l7.187-4.151a.64.64 0 01.637 0l7.192 4.151a.63.63 0 01.316.549l.002 8.301zm1.943-61.484a1.27 1.27 0 00-1.258.013 1.268 1.268 0 00-.624 1.093v32.125a.884.884 0 01-1.326.766l-5.244-3.02a2.524 2.524 0 00-2.526 0l-20.941 12.086a2.523 2.523 0 00-1.266 2.184v24.178a2.53 2.53 0 001.266 2.19l20.94 12.094a2.54 2.54 0 002.53 0l20.94-12.1a2.534 2.534 0 001.266-2.189V67.381c0-.918-.5-1.761-1.3-2.21l-12.457-6.953zm69.733 52.965a2.529 2.529 0 001.257-2.186v-5.86a2.53 2.53 0 00-1.259-2.187l-20.807-12.079a2.526 2.526 0 00-2.536 0l-20.936 12.084a2.524 2.524 0 00-1.265 2.19v24.168c0 .91.49 1.75 1.275 2.2l20.803 11.856c.766.44 1.705.445 2.481.015l12.583-6.994c.396-.222.648-.642.648-1.097 0-.454-.242-.88-.638-1.102l-21.064-12.089a1.255 1.255 0 01-.638-1.092v-7.582c0-.453.237-.87.633-1.095l6.553-3.781a1.25 1.25 0 011.26 0l6.56 3.78c.39.223.632.643.632 1.093v5.96c0 .45.242.87.633 1.098.39.222.874.222 1.265-.005l12.56-7.295z"
      fill="#333"
    />
    <path
      d="M210.688 110.052a.48.48 0 01.484 0l4.018 2.318c.15.087.242.247.242.42v4.64a.485.485 0 01-.242.42l-4.018 2.319a.48.48 0 01-.484 0l-4.016-2.318a.483.483 0 01-.247-.42v-4.641c0-.173.089-.333.242-.42l4.02-2.318z"
      fill="#689f63"
    />
    <g transform="translate(-23.01 -23.005) scale(.37068)">
      <g>
        <path
          d="M441.817 329.057L283.531 251.47l-81.16 165.565 158.282 77.591 81.164-165.569z"
          fill="url(#_Linear3)"
          fill-rule="nonzero"
        />
      </g>
    </g>
    <g transform="translate(-23.01 -23.005) scale(.37068)">
      <g>
        <path
          d="M192.094 352.005l111.766 151.27 147.813-109.208L339.9 242.801 192.094 352.005z"
          fill="url(#_Linear5)"
          fill-rule="nonzero"
        />
      </g>
    </g>
    <g transform="translate(-23.01 -23.005) scale(.37068)">
      <g>
        <path
          fill="url(#_Linear7)"
          fill-rule="nonzero"
          d="M262.694 301.245h122.244v143.24H262.694z"
        />
      </g>
    </g>
  </g>
  <defs>
    <linearGradient
      id="_Linear3"
      x1="0"
      y1="0"
      x2="1"
      y2="0"
      gradientUnits="userSpaceOnUse"
      gradientTransform="scale(-184.375) rotate(-63.886 92.344 -58.185)"
    >
      <stop offset="0" stop-color="#3e863d" />
      <stop offset=".3" stop-color="#3e863d" />
      <stop offset=".5" stop-color="#55934f" />
      <stop offset=".8" stop-color="#5aad45" />
      <stop offset="1" stop-color="#5aad45" />
    </linearGradient>
    <linearGradient
      id="_Linear5"
      x1="0"
      y1="0"
      x2="1"
      y2="0"
      gradientUnits="userSpaceOnUse"
      gradientTransform="scale(183.793) rotate(-36.46 270.538 -88.606)"
    >
      <stop offset="0" stop-color="#3e863d" />
      <stop offset=".57" stop-color="#3e863d" />
      <stop offset=".72" stop-color="#619857" />
      <stop offset="1" stop-color="#76ac64" />
    </linearGradient>
    <linearGradient
      id="_Linear7"
      x1="0"
      y1="0"
      x2="1"
      y2="0"
      gradientUnits="userSpaceOnUse"
      gradientTransform="translate(262.803 29719.2) scale(122.226)"
    >
      <stop offset="0" stop-color="#6bbf47" />
      <stop offset=".16" stop-color="#6bbf47" />
      <stop offset=".38" stop-color="#79b461" />
      <stop offset=".47" stop-color="#75ac64" />
      <stop offset=".7" stop-color="#659e5a" />
      <stop offset=".9" stop-color="#3e863d" />
      <stop offset="1" stop-color="#3e863d" />
    </linearGradient>
  </defs>
</svg>
