<svg

  viewBox="0 0 251 251"
  xmlns="http://www.w3.org/2000/svg"
  fill-rule="evenodd"
  clip-rule="evenodd"
>
  <path fill="none" d="M0 0h250.02v250.02H0z" />
  <path
    d="M169.766 167.461c1.186-9.878.83-11.326 8.188-9.726l1.867.164c5.658.257 13.058-.91 17.406-2.93 9.359-4.342 14.908-11.593 5.68-9.688-21.05 4.343-22.498-2.785-22.498-2.785 22.228-32.981 31.52-74.848 23.5-85.096-21.877-27.953-59.744-14.734-60.378-14.391l-.201.037c-4.16-.863-8.814-1.378-14.044-1.463-9.526-.156-16.754 2.497-22.237 6.656 0 0-67.554-27.83-64.41 35 .668 13.367 19.158 101.14 41.211 74.628 8.06-9.694 15.85-17.891 15.85-17.891 3.868 2.57 8.5 3.88 13.356 3.41l.376-.32c-.118 1.203-.066 2.38.15 3.774-5.68 6.348-4.011 7.463-15.37 9.8-11.49 2.369-4.74 6.586-.333 7.688 5.344 1.336 17.706 3.229 26.06-8.465l-.332 1.335c2.229 1.782 2.078 12.814 2.394 20.696.316 7.883.844 15.239 2.45 19.575 1.608 4.336 3.504 15.507 18.431 12.308 12.476-2.674 22.015-6.522 22.884-42.316"
    fill-rule="nonzero"
    stroke="#000"
    stroke-width="15.653022"
  />
  <path
    d="M202.909 145.28c-21.053 4.343-22.5-2.785-22.5-2.785 22.228-32.983 31.52-74.85 23.502-85.097-21.877-27.951-59.746-14.732-60.378-14.389l-.203.036c-4.16-.863-8.814-1.377-14.046-1.463-9.526-.156-16.752 2.498-22.235 6.656 0 0-67.555-27.83-64.413 35 .668 13.368 19.159 101.14 41.213 74.63 8.06-9.695 15.849-17.892 15.849-17.892 3.868 2.57 8.5 3.88 13.354 3.41l.377-.32c-.117 1.203-.063 2.38.151 3.774-5.681 6.348-4.012 7.463-15.37 9.8-11.491 2.369-4.74 6.586-.332 7.688 5.344 1.336 17.706 3.229 26.06-8.465l-.333 1.335c2.226 1.782 3.789 11.597 3.527 20.494-.262 8.898-.437 15.006 1.317 19.777 1.754 4.772 3.502 15.507 18.433 12.308 12.476-2.674 18.94-9.602 19.84-21.16.638-8.215 2.083-7 2.174-14.346l1.158-3.478c1.336-11.137.212-14.73 7.899-13.059l1.868.164c5.657.258 13.06-.91 17.406-2.93 9.358-4.342 14.908-11.593 5.681-9.688h.001z"
    fill="#336791"
    fill-rule="nonzero"
  />
  <path
    d="M124.842 151.665c-.58 20.723.145 41.591 2.173 46.663 2.03 5.072 6.371 14.937 21.303 11.738 12.475-2.675 17.014-7.85 18.983-19.274 1.45-8.405 4.247-31.747 4.606-36.53M106.945 47.775s-67.601-27.63-64.458 35.202c.668 13.366 19.16 101.142 41.213 74.63 8.06-9.696 15.348-17.3 15.348-17.3M143.459 42.732c-2.34.734 37.604-14.602 60.304 14.404 8.019 10.248-1.273 52.115-23.501 85.099"
    fill="none"
    stroke="#fff"
    stroke-width="5.2190691000000005"
    stroke-linecap="round"
    stroke-linejoin="round"
  />
  <path
    d="M180.261 142.235s1.449 7.13 22.502 2.784c9.224-1.905 3.673 5.346-5.682 9.691-7.678 3.564-24.892 4.477-25.173-.447-.724-12.705 9.06-8.845 8.354-12.028-.639-2.867-5.014-5.68-7.908-12.697-2.527-6.125-34.652-53.09 8.91-46.115 1.595-.33-11.362-41.435-52.13-42.103-40.758-.669-39.42 50.123-39.42 50.123"
    fill="none"
    stroke="#fff"
    stroke-width="5.2190691000000005"
    stroke-linecap="round"
    stroke-linejoin="bevel"
  />
  <path
    d="M113.432 146.58c-5.682 6.347-4.011 7.461-15.37 9.8-11.492 2.369-4.74 6.585-.333 7.686 5.344 1.338 17.706 3.23 26.06-8.466 2.544-3.561-.015-9.244-3.51-10.692-1.688-.7-3.945-1.576-6.847 1.672z"
    fill="none"
    stroke="#fff"
    stroke-width="5.2190691000000005"
    stroke-linecap="round"
    stroke-linejoin="round"
  />
  <path
    d="M113.06 146.469c-.573-3.732 1.226-8.173 3.154-13.369 2.897-7.795 9.581-15.592 4.234-40.32-3.986-18.428-30.718-3.835-30.735-1.337-.016 2.498 1.21 12.665-.446 24.504-2.16 15.45 9.83 28.515 23.638 27.178"
    fill="none"
    stroke="#fff"
    stroke-width="5.2190691000000005"
    stroke-linecap="round"
    stroke-linejoin="round"
  />
  <path
    d="M106.699 91.069c-.12.853 1.562 3.13 3.757 3.435 2.19.305 4.065-1.474 4.184-2.327.119-.853-1.562-1.793-3.757-2.099-2.192-.306-4.068.14-4.184.99h0z"
    fill="#fff"
    fill-rule="nonzero"
    stroke="#fff"
    stroke-width="1.7410848"
  />
  <path
    d="M173.422 89.329c.119.853-1.562 3.13-3.757 3.435-2.192.305-4.067-1.474-4.187-2.327-.116-.853 1.565-1.793 3.758-2.099 2.193-.305 4.067.14 4.186.991h0z"
    fill="#fff"
    fill-rule="nonzero"
    stroke="#fff"
    stroke-width=".8705424"
  />
  <path
    d="M181.263 83.423c.361 6.694-1.442 11.253-1.669 18.38-.336 10.357 4.938 22.212-3.01 34.082"
    fill="none"
    stroke="#fff"
    stroke-width="5.2190691000000005"
    stroke-linecap="round"
    stroke-linejoin="round"
  />
</svg>
